<svg width="72" height="30" viewBox="0 0 72 30" fill="none" xmlns="http://www.w3.org/2000/svg">
<g clip-path="url(#clip0_68_1175)">
<path d="M3.30691 16.617L0.729492 22.3521H6.42916L9.00035 16.617H3.30691Z" fill="#008B95"/>
<path d="M13.9064 5.7688L15.9327 1.28613L20.4942 11.405H21.3239L16.3494 0.364075H10.6348L5.66162 11.4037H11.3588L13.4896 6.68961L15.618 11.405H16.4502L13.9064 5.7688Z" fill="#008B95"/>
<path d="M23.6736 16.6158H22.8427L25.0792 21.5839H21.044L18.8024 16.6183H17.9702L20.5551 22.3458H26.2548L23.6736 16.6158Z" fill="#008B95"/>
<path d="M65.6263 0.364075V14.5127L55.2184 0.364075H49.5747V22.3521H55.2184V10.1063V10.1076L64.1647 22.3521H71.2713V0.364075H65.6263ZM54.4608 21.5901H50.3323V1.12599H54.4608V21.5901ZM70.5125 21.2536L66.3839 15.5386V1.12599H70.5125V21.2536Z" fill="#008B95"/>
<path d="M43.6388 15.5061C42.5715 16.6371 41.1684 17.1875 39.3498 17.1875C36.0969 17.1875 33.9126 14.8455 33.9126 11.3587C33.9126 7.89066 36.0981 5.55986 39.3498 5.55986C41.1236 5.55986 42.5243 6.12286 43.5119 7.23258L43.7781 7.53159L47.9179 3.3692L47.6293 3.10021C45.45 1.07219 42.5877 0 39.351 0C32.7259 0 27.729 4.88302 27.729 11.3587C27.729 17.8344 32.7507 22.7174 39.4107 22.7174C42.7357 22.7174 45.4624 21.714 47.745 19.6509L48.0423 19.3832L43.9075 15.2246L43.6388 15.5061ZM28.4841 11.4037C28.4841 5.36219 33.1563 0.759415 39.3498 0.759415C42.2916 0.759415 44.8044 1.64519 46.822 3.39422L43.7993 6.43438C42.686 5.34843 41.192 4.79795 39.3498 4.79795C35.6453 4.79795 33.1563 7.434 33.1563 11.3574L33.1575 11.4037H28.4841Z" fill="#008B95"/>
<path d="M2.24584 26.1654L0.729492 29.9412H1.49824L1.76568 29.2381H3.30566L3.57062 29.9412H4.34558L2.84417 26.1654H2.24584ZM1.9983 28.6251L2.5394 27.2001L3.07554 28.6251H1.9983Z" fill="#008B95"/>
<path d="M7.34608 26.1654H6.61963V29.9412H7.15452H7.34608H9.06643V29.2906H7.34608V26.1654Z" fill="#008B95"/>
<path d="M12.1412 26.1654H11.416V29.9412H11.9497H12.1412H13.8616V29.2906H12.1412V26.1654Z" fill="#008B95"/>
<path d="M16.9379 28.3298H18.6408V27.7005H16.9379V26.8097H18.7963V26.1654H16.9379H16.7451H16.2114V29.9412H16.7451H16.9379H18.8224V29.2956H16.9379V28.3298Z" fill="#008B95"/>
<path d="M22.6199 27.6304L21.733 26.1654H20.8896L22.2505 28.3398V29.9412H22.977V28.3085L24.3341 26.1654H23.5056L22.6199 27.6304Z" fill="#008B95"/>
<path d="M28.6272 29.2181C28.478 29.2844 28.2976 29.3169 28.0874 29.3169C27.9132 29.3169 27.754 29.2869 27.6097 29.2256C27.4654 29.1643 27.3398 29.0792 27.2328 28.9678C27.1258 28.8565 27.0437 28.7239 26.9865 28.5675C26.9293 28.4124 26.9007 28.2385 26.9007 28.0495C26.9007 27.8631 26.9293 27.6917 26.9865 27.5366C27.0437 27.3815 27.1258 27.2463 27.2328 27.1337C27.3398 27.0211 27.4654 26.9348 27.6097 26.876C27.754 26.8172 27.912 26.7872 28.0824 26.7872C28.2814 26.7872 28.4556 26.8197 28.6061 26.8835C28.7553 26.9473 28.8822 27.0374 28.9855 27.1525L29.4818 26.6533C29.3076 26.4844 29.1074 26.3518 28.881 26.253C28.6546 26.1541 28.3884 26.1053 28.0824 26.1053C27.8087 26.1053 27.5537 26.1554 27.3186 26.2555C27.0835 26.3556 26.8795 26.4944 26.7041 26.6696C26.53 26.8447 26.3944 27.0512 26.2986 27.2876C26.2028 27.5241 26.1543 27.7781 26.1543 28.0508C26.1543 28.3223 26.2028 28.5775 26.2986 28.814C26.3944 29.0504 26.5312 29.2569 26.7066 29.4345C26.8832 29.6122 27.0885 29.751 27.3236 29.8511C27.5587 29.9512 27.8149 30.0013 28.0923 30.0013C28.3909 30.0013 28.6571 29.9525 28.8909 29.8536C29.1235 29.7548 29.33 29.6197 29.5079 29.4483L29.0116 28.9491C28.9059 29.0617 28.7777 29.1518 28.6272 29.2181Z" fill="#008B95"/>
<path d="M34.8256 26.6646C34.649 26.4857 34.4437 26.3481 34.2086 26.2505C33.9735 26.1541 33.7173 26.1053 33.4399 26.1053C33.1662 26.1053 32.9112 26.1541 32.6761 26.2505C32.441 26.3468 32.2357 26.4844 32.0591 26.6646C31.8825 26.8435 31.7444 27.0512 31.6449 27.2851C31.5454 27.5191 31.4956 27.7731 31.4956 28.0458C31.4956 28.3173 31.5454 28.5725 31.6449 28.809C31.7444 29.0454 31.8837 29.2531 32.0616 29.432C32.2395 29.6109 32.4472 29.751 32.6836 29.8511C32.9199 29.9512 33.1761 30.0013 33.4498 30.0013C33.7197 30.0013 33.9735 29.9525 34.2111 29.8536C34.4474 29.7548 34.6539 29.6159 34.8281 29.437C35.0022 29.2581 35.1391 29.0504 35.2398 28.814C35.3393 28.5775 35.3891 28.3235 35.3891 28.0508C35.3891 27.7781 35.3393 27.5241 35.2398 27.2876C35.1391 27.0512 35.001 26.8435 34.8256 26.6646ZM34.486 28.7139C34.3865 28.9053 34.2459 29.0554 34.0668 29.1618C33.8877 29.2694 33.6774 29.3232 33.4399 29.3232C33.2657 29.3232 33.104 29.2919 32.956 29.2293C32.8079 29.1668 32.6823 29.0792 32.5766 28.9691C32.4721 28.8578 32.39 28.7239 32.334 28.5662C32.2768 28.4086 32.2482 28.2347 32.2482 28.0458C32.2482 27.7956 32.2992 27.5754 32.3999 27.3852C32.5019 27.195 32.6413 27.0474 32.8191 26.9423C32.997 26.8372 33.2035 26.7834 33.4386 26.7834C33.6202 26.7834 33.7832 26.8135 33.9275 26.8748C34.0718 26.9361 34.1974 27.0224 34.3044 27.135C34.4114 27.2476 34.4935 27.3815 34.5507 27.5353C34.6079 27.6892 34.6365 27.8594 34.6365 28.0458C34.6353 28.2985 34.5855 28.5225 34.486 28.7139Z" fill="#008B95"/>
<path d="M39.9006 28.2272C40.0859 28.1346 40.229 28.0058 40.331 27.8431C40.433 27.6805 40.4827 27.4878 40.4827 27.2664C40.4827 27.0512 40.4317 26.8623 40.331 26.6971C40.229 26.532 40.0872 26.4031 39.9043 26.308C39.7214 26.2129 39.51 26.1654 39.2711 26.1654H38.5235H38.332H37.7983V29.9412H38.5248V28.3673H38.6504L39.8496 29.9412H40.7303L39.4776 28.3523C39.6306 28.331 39.7737 28.291 39.9006 28.2272ZM38.5223 27.7918V26.7609H39.2002C39.3781 26.7609 39.515 26.8097 39.612 26.9086C39.7078 27.0074 39.7563 27.1313 39.7563 27.2814C39.7563 27.439 39.7078 27.5629 39.612 27.6542C39.5162 27.7455 39.3769 27.7906 39.1953 27.7906H38.5223V27.7918Z" fill="#008B95"/>
<path d="M45.094 26.3105C44.9037 26.2142 44.6885 26.1654 44.4509 26.1654H43.6984H43.5068H42.9731V29.9412H43.6996V28.545H44.4522C44.691 28.545 44.905 28.4962 45.0953 28.3999C45.2856 28.3035 45.4361 28.1659 45.5468 27.9857C45.6575 27.8068 45.7123 27.5954 45.7123 27.3514C45.7123 27.1087 45.6575 26.8973 45.5468 26.7209C45.4349 26.5432 45.2844 26.4069 45.094 26.3105ZM44.9025 27.6717C44.8515 27.7593 44.7793 27.8281 44.686 27.8757C44.594 27.9244 44.4907 27.9482 44.3763 27.9482H43.6984V26.7609H44.3763C44.4895 26.7609 44.594 26.7847 44.686 26.8335C44.7781 26.8823 44.8502 26.9498 44.9025 27.0374C44.9547 27.125 44.9796 27.2301 44.9796 27.3514C44.9796 27.4766 44.9535 27.5841 44.9025 27.6717Z" fill="#008B95"/>
<path d="M53.2567 28.6025L51.3772 26.1654H50.8696V29.9412H51.5961V27.5103L53.4657 29.9412H53.9832V26.1654H53.2567V28.6025Z" fill="#008B95"/>
<path d="M59.7162 26.6646C59.5396 26.4857 59.3343 26.3481 59.0992 26.2505C58.8641 26.1541 58.6079 26.1053 58.3305 26.1053C58.0568 26.1053 57.8018 26.1541 57.5667 26.2505C57.3316 26.3468 57.1264 26.4844 56.9497 26.6646C56.7731 26.8435 56.635 27.0512 56.5355 27.2851C56.436 27.5191 56.3862 27.7731 56.3862 28.0458C56.3862 28.3173 56.436 28.5725 56.5355 28.809C56.635 29.0454 56.7743 29.2531 56.9522 29.432C57.1301 29.6109 57.3378 29.751 57.5742 29.8511C57.8105 29.9512 58.0668 30.0013 58.3404 30.0013C58.6104 30.0013 58.8641 29.9525 59.1017 29.8536C59.3381 29.7548 59.5446 29.6159 59.7187 29.437C59.8929 29.2581 60.0297 29.0504 60.1304 28.814C60.23 28.5775 60.2797 28.3235 60.2797 28.0508C60.2797 27.7781 60.23 27.5241 60.1304 27.2876C60.0297 27.0512 59.8929 26.8435 59.7162 26.6646ZM59.3766 28.7139C59.2771 28.9053 59.1366 29.0554 58.9574 29.1618C58.7783 29.2694 58.5681 29.3232 58.3305 29.3232C58.1563 29.3232 57.9946 29.2919 57.8466 29.2293C57.6986 29.1668 57.5729 29.0792 57.4672 28.9691C57.3627 28.8578 57.2806 28.7239 57.2246 28.5662C57.1674 28.4086 57.1388 28.2347 57.1388 28.0458C57.1388 27.7956 57.1898 27.5754 57.2906 27.3852C57.3926 27.195 57.5319 27.0474 57.7098 26.9423C57.8877 26.8372 58.0941 26.7834 58.3292 26.7834C58.5109 26.7834 58.6738 26.8135 58.8181 26.8748C58.9624 26.9361 59.088 27.0224 59.195 27.135C59.302 27.2476 59.3841 27.3815 59.4413 27.5353C59.4985 27.6892 59.5271 27.8594 59.5271 28.0458C59.5259 28.2985 59.4761 28.5225 59.3766 28.7139Z" fill="#008B95"/>
<path d="M64.7917 28.2272C64.977 28.1346 65.1201 28.0058 65.2221 27.8431C65.3241 27.6805 65.3738 27.4878 65.3738 27.2664C65.3738 27.0512 65.3228 26.8623 65.2221 26.6971C65.1201 26.532 64.9783 26.4031 64.7954 26.308C64.6126 26.2129 64.4011 26.1654 64.1623 26.1654H63.4147H63.2231H62.6895V29.9412H63.4159V28.3673H63.5415L64.7407 29.9412H65.6214L64.3688 28.3523C64.523 28.331 64.6648 28.291 64.7917 28.2272ZM63.4147 27.7918V26.7609H64.0926C64.2705 26.7609 64.4073 26.8097 64.5043 26.9086C64.6001 27.0074 64.6486 27.1313 64.6486 27.2814C64.6486 27.439 64.6001 27.5629 64.5043 27.6542C64.4086 27.7455 64.2692 27.7906 64.0876 27.7906H63.4147V27.7918Z" fill="#008B95"/>
<path d="M70.7201 26.6996C70.5459 26.5295 70.3394 26.3981 70.1006 26.3043C69.8618 26.2117 69.6043 26.1642 69.3269 26.1642H68.5892H68.3429H67.8628V29.94H68.3591H68.5892H69.3368C69.6105 29.94 69.8668 29.8937 70.1031 29.7998C70.3394 29.7073 70.5459 29.5746 70.7201 29.4045C70.8942 29.2343 71.0298 29.0342 71.1256 28.8027C71.2214 28.5713 71.2699 28.3198 71.2699 28.0483C71.2699 27.7756 71.2214 27.5253 71.1256 27.2964C71.0298 27.0687 70.8942 26.8698 70.7201 26.6996ZM70.3755 28.7026C70.2735 28.8903 70.1317 29.0354 69.9489 29.138C69.766 29.2406 69.5545 29.2906 69.3157 29.2906H68.5892V26.8147H69.3157C69.5545 26.8147 69.7648 26.866 69.9464 26.9699C70.128 27.0737 70.271 27.2176 70.373 27.399C70.4763 27.5816 70.5285 27.7968 70.5285 28.0433C70.5273 28.296 70.4775 28.515 70.3755 28.7026Z" fill="#008B95"/>
<path d="M11.359 11.4037L9.00049 16.6183H23.6751L26.0323 11.405C26.1405 11.405 11.359 11.4037 11.359 11.4037Z" fill="#E4A124"/>
</g>
<defs>
<clipPath id="clip0_68_1175">
<rect width="70.5405" height="30" fill="white" transform="translate(0.729492)"/>
</clipPath>
</defs>
</svg>
