<svg xmlns="http://www.w3.org/2000/svg" xmlns:xlink="http://www.w3.org/1999/xlink" version="1.1" width="256" height="256" viewBox="0 0 256 256" xml:space="preserve">

<defs>
</defs>
<g style="stroke: none; stroke-width: 0; stroke-dasharray: none; stroke-linecap: butt; stroke-linejoin: miter; stroke-miterlimit: 10; fill: none; fill-rule: nonzero; opacity: 1;" transform="translate(1.4065934065934016 1.4065934065934016) scale(2.81 2.81)" >
	<path d="M 51.839 65.734 c -4.358 0 -8.491 -1.666 -11.637 -4.692 c -0.398 -0.383 -0.41 -1.016 -0.027 -1.414 c 0.384 -0.397 1.017 -0.41 1.414 -0.027 c 2.771 2.666 6.411 4.134 10.25 4.134 c 5.966 0 11.317 -3.553 13.635 -9.052 c 0.106 -0.252 0.312 -0.449 0.567 -0.546 c 0.256 -0.099 0.54 -0.085 0.786 0.032 c 2.001 0.959 4.147 1.444 6.382 1.444 C 81.365 55.613 88 48.979 88 40.823 c 0 -6.133 -3.692 -11.541 -9.407 -13.776 c -0.288 -0.113 -0.508 -0.353 -0.596 -0.65 c -1.834 -6.254 -7.669 -10.623 -14.19 -10.623 c -3.089 0 -6.051 0.946 -8.566 2.737 c -0.443 0.315 -1.056 0.219 -1.381 -0.216 c -2.823 -3.775 -7.143 -5.94 -11.851 -5.94 c -4.232 0 -8.271 1.822 -11.081 5 c -0.277 0.313 -0.721 0.42 -1.11 0.27 c -1.706 -0.66 -3.5 -0.995 -5.333 -0.995 c -8.156 0 -14.791 6.635 -14.791 14.791 c 0 1.164 0.14 2.334 0.416 3.478 c 0.105 0.437 -0.094 0.891 -0.487 1.108 C 4.92 38.617 2 43.574 2 48.943 C 2 57.1 8.635 63.734 16.791 63.734 c 2.529 0 5.028 -0.652 7.226 -1.887 c 4.125 -2.211 5.862 -4.327 7.542 -6.374 c 1.835 -2.235 3.57 -4.348 7.986 -5.792 c 0.527 -0.174 1.089 0.114 1.262 0.64 c 0.171 0.524 -0.115 1.089 -0.64 1.261 c -3.863 1.264 -5.275 2.983 -7.063 5.161 c -1.72 2.095 -3.669 4.47 -8.126 6.858 c -2.479 1.392 -5.317 2.133 -8.188 2.133 C 7.532 65.734 0 58.202 0 48.943 c 0 -5.845 3.049 -11.26 8.005 -14.308 c -0.207 -1.063 -0.312 -2.142 -0.312 -3.216 c 0 -9.258 7.532 -16.791 16.791 -16.791 c 1.852 0 3.668 0.301 5.41 0.895 c 3.162 -3.293 7.538 -5.169 12.114 -5.169 c 5.027 0 9.663 2.174 12.863 5.997 c 2.678 -1.689 5.747 -2.578 8.936 -2.578 c 7.24 0 13.735 4.743 15.966 11.594 C 86.002 28.009 90 34.023 90 40.823 c 0 9.258 -7.532 16.791 -16.791 16.791 c -2.192 0 -4.313 -0.413 -6.315 -1.229 C 64.073 62.097 58.27 65.734 51.839 65.734 z" style="stroke: none; stroke-width: 1; stroke-dasharray: none; stroke-linecap: butt; stroke-linejoin: miter; stroke-miterlimit: 10; fill: rgb(0,0,0); fill-rule: nonzero; opacity: 1;" transform=" matrix(1 0 0 1 0 0) " stroke-linecap="round" />
	<path d="M 34.837 79.645 H 24.31 c -0.317 0 -0.616 -0.15 -0.805 -0.406 s -0.245 -0.586 -0.151 -0.889 c 1.625 -5.255 0.031 -9.438 -4.873 -12.79 c -0.456 -0.312 -0.573 -0.934 -0.261 -1.39 c 0.312 -0.455 0.933 -0.573 1.39 -0.261 c 5.24 3.581 7.254 8.197 6.002 13.735 h 8.294 c 0.749 -8.087 5.503 -12.146 10.562 -15.316 c 0.468 -0.294 1.086 -0.151 1.378 0.316 c 0.293 0.468 0.152 1.085 -0.316 1.379 c -5.542 3.473 -9.313 7.298 -9.696 14.673 C 35.808 79.228 35.369 79.645 34.837 79.645 z" style="stroke: none; stroke-width: 1; stroke-dasharray: none; stroke-linecap: butt; stroke-linejoin: miter; stroke-miterlimit: 10; fill: rgb(0,0,0); fill-rule: nonzero; opacity: 1;" transform=" matrix(1 0 0 1 0 0) " stroke-linecap="round" />
	<path d="M 66.396 56.071 c -0.121 0 -0.243 -0.021 -0.362 -0.068 c -0.515 -0.2 -0.77 -0.779 -0.569 -1.294 c 4.069 -10.463 -3.015 -16.381 -7.6 -18.977 c -2.77 -1.451 -4.383 -3.076 -4.904 -4.955 c -0.438 -1.58 -0.102 -3.251 1.029 -5.109 c 0.287 -0.471 0.902 -0.622 1.374 -0.334 c 0.473 0.287 0.622 0.902 0.335 1.374 c -0.828 1.36 -1.094 2.516 -0.812 3.534 c 0.36 1.299 1.685 2.555 3.935 3.734 c 5.176 2.93 13.122 9.592 8.506 21.458 C 67.174 55.829 66.796 56.071 66.396 56.071 z" style="stroke: none; stroke-width: 1; stroke-dasharray: none; stroke-linecap: butt; stroke-linejoin: miter; stroke-miterlimit: 10; fill: rgb(0,0,0); fill-rule: nonzero; opacity: 1;" transform=" matrix(1 0 0 1 0 0) " stroke-linecap="round" />
	<path d="M 67.301 28.378 c -0.311 0 -0.616 -0.144 -0.812 -0.415 c -0.323 -0.448 -0.223 -1.073 0.225 -1.396 c 3.874 -2.797 8.123 -3.26 12.629 -1.374 c 0.51 0.213 0.75 0.799 0.537 1.308 c -0.214 0.51 -0.802 0.748 -1.309 0.537 c -3.875 -1.62 -7.37 -1.244 -10.686 1.15 C 67.708 28.316 67.504 28.378 67.301 28.378 z" style="stroke: none; stroke-width: 1; stroke-dasharray: none; stroke-linecap: butt; stroke-linejoin: miter; stroke-miterlimit: 10; fill: rgb(0,0,0); fill-rule: nonzero; opacity: 1;" transform=" matrix(1 0 0 1 0 0) " stroke-linecap="round" />
	<path d="M 80.122 43.214 c -2.281 0 -4.229 -0.518 -5.818 -1.55 c -2.399 -1.558 -3.996 -4.292 -4.745 -8.127 c -0.105 -0.542 0.248 -1.067 0.79 -1.173 c 0.537 -0.109 1.067 0.248 1.173 0.79 c 0.642 3.283 1.943 5.582 3.871 6.833 c 2.061 1.337 4.982 1.583 8.685 0.732 c 0.538 -0.119 1.074 0.212 1.198 0.75 c 0.124 0.538 -0.212 1.075 -0.751 1.199 C 82.943 43.032 81.475 43.214 80.122 43.214 z" style="stroke: none; stroke-width: 1; stroke-dasharray: none; stroke-linecap: butt; stroke-linejoin: miter; stroke-miterlimit: 10; fill: rgb(0,0,0); fill-rule: nonzero; opacity: 1;" transform=" matrix(1 0 0 1 0 0) " stroke-linecap="round" />
	<path d="M 52.889 56.376 c -0.205 0 -0.413 -0.063 -0.592 -0.194 c -5.554 -4.083 -6.56 -9.842 -2.99 -17.116 c 0.243 -0.495 0.842 -0.7 1.338 -0.458 c 0.496 0.244 0.7 0.843 0.457 1.338 c -3.123 6.366 -2.345 11.149 2.381 14.624 c 0.444 0.327 0.54 0.953 0.213 1.398 C 53.499 56.235 53.196 56.376 52.889 56.376 z" style="stroke: none; stroke-width: 1; stroke-dasharray: none; stroke-linecap: butt; stroke-linejoin: miter; stroke-miterlimit: 10; fill: rgb(0,0,0); fill-rule: nonzero; opacity: 1;" transform=" matrix(1 0 0 1 0 0) " stroke-linecap="round" />
	<path d="M 29.549 34.875 c -1.537 0 -3.211 -0.303 -5.013 -0.909 c -0.523 -0.176 -0.805 -0.743 -0.629 -1.267 c 0.176 -0.522 0.742 -0.805 1.267 -0.629 c 3.17 1.066 5.812 1.072 7.854 0.015 c 2.182 -1.128 3.841 -3.546 4.932 -7.185 c 0.159 -0.529 0.718 -0.83 1.245 -0.671 c 0.529 0.159 0.83 0.716 0.671 1.245 c -1.253 4.178 -3.248 7 -5.929 8.387 C 32.642 34.538 31.172 34.875 29.549 34.875 z" style="stroke: none; stroke-width: 1; stroke-dasharray: none; stroke-linecap: butt; stroke-linejoin: miter; stroke-miterlimit: 10; fill: rgb(0,0,0); fill-rule: nonzero; opacity: 1;" transform=" matrix(1 0 0 1 0 0) " stroke-linecap="round" />
	<path d="M 35.414 32.573 c -0.342 0 -0.676 -0.176 -0.862 -0.492 c -0.281 -0.476 -0.123 -1.089 0.353 -1.37 c 3.267 -1.927 6.584 -2.028 9.86 -0.303 c 0.489 0.257 0.676 0.862 0.419 1.351 c -0.257 0.489 -0.862 0.675 -1.351 0.419 c -2.66 -1.401 -5.248 -1.318 -7.912 0.256 C 35.762 32.529 35.587 32.573 35.414 32.573 z" style="stroke: none; stroke-width: 1; stroke-dasharray: none; stroke-linecap: butt; stroke-linejoin: miter; stroke-miterlimit: 10; fill: rgb(0,0,0); fill-rule: nonzero; opacity: 1;" transform=" matrix(1 0 0 1 0 0) " stroke-linecap="round" />
	<path d="M 12.18 56.642 c -0.15 0 -0.303 -0.034 -0.447 -0.106 c -0.494 -0.247 -0.693 -0.848 -0.446 -1.342 c 1.954 -3.899 4.405 -6.335 7.285 -7.239 c 2.728 -0.856 5.854 -0.347 9.288 1.52 c 0.485 0.264 0.665 0.871 0.401 1.356 c -0.264 0.484 -0.871 0.664 -1.356 0.401 c -2.938 -1.597 -5.542 -2.057 -7.733 -1.369 c -2.343 0.736 -4.394 2.831 -6.096 6.228 C 12.899 56.439 12.546 56.642 12.18 56.642 z" style="stroke: none; stroke-width: 1; stroke-dasharray: none; stroke-linecap: butt; stroke-linejoin: miter; stroke-miterlimit: 10; fill: rgb(0,0,0); fill-rule: nonzero; opacity: 1;" transform=" matrix(1 0 0 1 0 0) " stroke-linecap="round" />
	<path d="M 13.258 51.634 c -2.105 0 -4.091 -0.715 -5.938 -2.142 c -0.437 -0.338 -0.518 -0.966 -0.18 -1.402 c 0.338 -0.437 0.966 -0.516 1.402 -0.18 c 2.378 1.837 4.941 2.201 7.838 1.111 c 0.516 -0.194 1.094 0.066 1.288 0.583 c 0.194 0.518 -0.067 1.094 -0.584 1.288 C 15.772 51.388 14.494 51.634 13.258 51.634 z" style="stroke: none; stroke-width: 1; stroke-dasharray: none; stroke-linecap: butt; stroke-linejoin: miter; stroke-miterlimit: 10; fill: rgb(0,0,0); fill-rule: nonzero; opacity: 1;" transform=" matrix(1 0 0 1 0 0) " stroke-linecap="round" />
	<path d="M 9.138 36.132 c -0.339 0 -0.669 -0.172 -0.857 -0.483 c -0.286 -0.473 -0.134 -1.087 0.339 -1.373 c 2.53 -1.527 5.871 -2.731 10.213 -3.68 c 0.538 -0.116 1.072 0.224 1.19 0.764 c 0.118 0.54 -0.224 1.072 -0.764 1.19 c -4.124 0.901 -7.267 2.026 -9.606 3.438 C 9.492 36.086 9.313 36.132 9.138 36.132 z" style="stroke: none; stroke-width: 1; stroke-dasharray: none; stroke-linecap: butt; stroke-linejoin: miter; stroke-miterlimit: 10; fill: rgb(0,0,0); fill-rule: nonzero; opacity: 1;" transform=" matrix(1 0 0 1 0 0) " stroke-linecap="round" />
	<path d="M 28.608 25.203 c -0.414 0 -0.8 -0.259 -0.944 -0.671 c -0.986 -2.831 -0.407 -5.673 1.721 -8.448 c 0.336 -0.438 0.964 -0.521 1.402 -0.185 c 0.438 0.336 0.521 0.964 0.185 1.402 c -1.716 2.238 -2.18 4.389 -1.419 6.573 c 0.182 0.521 -0.094 1.092 -0.615 1.273 C 28.829 25.185 28.717 25.203 28.608 25.203 z" style="stroke: none; stroke-width: 1; stroke-dasharray: none; stroke-linecap: butt; stroke-linejoin: miter; stroke-miterlimit: 10; fill: rgb(0,0,0); fill-rule: nonzero; opacity: 1;" transform=" matrix(1 0 0 1 0 0) " stroke-linecap="round" />
	<path d="M 56.531 22.712 c -0.442 0 -0.848 -0.297 -0.966 -0.745 c -0.323 -1.225 -0.908 -2.475 -1.736 -3.715 c -0.308 -0.459 -0.184 -1.08 0.275 -1.387 c 0.46 -0.306 1.081 -0.183 1.387 0.276 c 0.952 1.424 1.628 2.876 2.008 4.315 c 0.141 0.534 -0.178 1.081 -0.711 1.222 C 56.702 22.701 56.616 22.712 56.531 22.712 z" style="stroke: none; stroke-width: 1; stroke-dasharray: none; stroke-linecap: butt; stroke-linejoin: miter; stroke-miterlimit: 10; fill: rgb(0,0,0); fill-rule: nonzero; opacity: 1;" transform=" matrix(1 0 0 1 0 0) " stroke-linecap="round" />
	<path d="M 48.218 48.062 c -0.516 0 -0.954 -0.396 -0.996 -0.92 c -0.217 -2.698 -1.35 -3.975 -3.671 -4.14 c -0.551 -0.039 -0.966 -0.518 -0.927 -1.068 s 0.526 -0.959 1.068 -0.927 c 2.314 0.165 5.15 1.334 5.524 5.975 c 0.044 0.551 -0.366 1.032 -0.917 1.077 C 48.271 48.061 48.244 48.062 48.218 48.062 z" style="stroke: none; stroke-width: 1; stroke-dasharray: none; stroke-linecap: butt; stroke-linejoin: miter; stroke-miterlimit: 10; fill: rgb(0,0,0); fill-rule: nonzero; opacity: 1;" transform=" matrix(1 0 0 1 0 0) " stroke-linecap="round" />
	<path d="M 80.734 48.062 c -0.521 0 -0.961 -0.405 -0.997 -0.934 c -0.115 -1.723 -1.094 -3.098 -3.174 -4.458 c -0.463 -0.302 -0.593 -0.922 -0.29 -1.384 c 0.302 -0.462 0.922 -0.591 1.384 -0.29 c 1.649 1.078 3.866 2.872 4.076 5.999 c 0.037 0.551 -0.38 1.027 -0.932 1.064 C 80.779 48.061 80.757 48.062 80.734 48.062 z" style="stroke: none; stroke-width: 1; stroke-dasharray: none; stroke-linecap: butt; stroke-linejoin: miter; stroke-miterlimit: 10; fill: rgb(0,0,0); fill-rule: nonzero; opacity: 1;" transform=" matrix(1 0 0 1 0 0) " stroke-linecap="round" />
</g>
</svg>