<svg width="17" height="22" viewBox="0 0 17 22" fill="none" xmlns="http://www.w3.org/2000/svg">
<path d="M8.59961 0L4.59961 4H7.59961V13H9.59961V4H12.5996M14.5996 22H2.59961C1.48961 22 0.599609 21.1 0.599609 20V8C0.599609 7.46957 0.810323 6.96086 1.1854 6.58579C1.56047 6.21071 2.06918 6 2.59961 6H5.59961V8H2.59961V20H14.5996V8H11.5996V6H14.5996C15.13 6 15.6388 6.21071 16.0138 6.58579C16.3889 6.96086 16.5996 7.46957 16.5996 8V20C16.5996 20.5304 16.3889 21.0391 16.0138 21.4142C15.6388 21.7893 15.13 22 14.5996 22Z" fill="#C8C8C8"/>
</svg>
