<svg width="21" height="21" viewBox="0 0 21 21" fill="none" xmlns="http://www.w3.org/2000/svg">
<path d="M14.1913 16.45C15.5413 16.45 16.6413 15.35 16.6413 14C16.6413 12.65 15.5413 11.55 14.1913 11.55C12.8313 11.55 11.7413 12.65 11.7413 14C11.7413 15.35 12.8313 16.45 14.1913 16.45ZM19.3913 14.68L20.8713 15.84C21.0013 15.95 21.0413 16.13 20.9513 16.29L19.5513 18.71C19.4613 18.86 19.2913 18.92 19.1213 18.86L17.3813 18.16C17.0213 18.44 16.6213 18.67 16.2013 18.85L15.9313 20.7C15.9113 20.87 15.7613 21 15.5913 21H12.7913C12.6113 21 12.4713 20.87 12.4413 20.7L12.1813 18.85C11.7513 18.67 11.3613 18.44 11.0013 18.16L9.25129 18.86C9.10129 18.92 8.91129 18.86 8.83129 18.71L7.43129 16.29C7.34129 16.13 7.38129 15.95 7.51129 15.84L8.99129 14.68L8.94129 14L8.99129 13.31L7.51129 12.16C7.38129 12.05 7.34129 11.86 7.43129 11.71L8.83129 9.29C8.91129 9.13 9.10129 9.07 9.25129 9.13L11.0013 9.84C11.3613 9.56 11.7513 9.32 12.1813 9.15L12.4413 7.29C12.4713 7.13 12.6113 7 12.7913 7H15.5913C15.7613 7 15.9113 7.13 15.9313 7.29L16.2013 9.15C16.6213 9.32 17.0213 9.56 17.3813 9.84L19.1213 9.13C19.2913 9.07 19.4613 9.13 19.5513 9.29L20.9513 11.71C21.0413 11.86 21.0013 12.05 20.8713 12.16L19.3913 13.31L19.4413 14L19.3913 14.68ZM4.98129 6.07C5.85128 6.07 6.55129 5.37 6.55129 4.5C6.55129 3.63 5.85128 2.92 4.98129 2.92C4.56224 2.92 4.16036 3.08646 3.86406 3.38277C3.56775 3.67908 3.40129 4.08096 3.40129 4.5C3.40129 5.37 4.11129 6.07 4.98129 6.07ZM8.32128 4.94L9.29129 5.68C9.36129 5.75 9.38129 5.87 9.32129 5.97L8.42129 7.53C8.37128 7.63 8.25128 7.67 8.15128 7.63L7.03128 7.18L6.29129 7.62L6.10128 8.81C6.08128 8.92 5.99129 9 5.88129 9H4.08128C3.96129 9 3.87128 8.92 3.85128 8.81L3.69129 7.62L2.93128 7.18L1.79129 7.63C1.70129 7.67 1.59129 7.63 1.53129 7.53L0.631285 5.97C0.571285 5.87 0.601285 5.75 0.681285 5.68L1.63129 4.94L1.60129 4.5L1.63129 4.06L0.681285 3.32C0.601285 3.25 0.571285 3.13 0.631285 3.03L1.53129 1.47C1.59129 1.37 1.70129 1.33 1.79129 1.37L2.92129 1.82L3.69129 1.38L3.85128 0.19C3.87128 0.0800001 3.96129 0 4.08128 0H5.88129C5.99129 0 6.08128 0.0800001 6.10128 0.19L6.29129 1.38L7.03128 1.82L8.15128 1.37C8.25128 1.33 8.37128 1.37 8.42129 1.47L9.32129 3.03C9.38129 3.13 9.36129 3.25 9.29129 3.32L8.32128 4.06L8.35129 4.5L8.32128 4.94Z" fill="#C8C8C8"/>
</svg>
