<svg width="24" height="24" viewBox="0 0 24 24" fill="none" xmlns="http://www.w3.org/2000/svg">
<path d="M10.2146 9.36038C8.45672 11.4305 7.73757 13.5506 7.6277 14.7407C7.41795 18.5709 10.2646 20.021 11.3533 20.8011C10.5243 20.181 9.95495 17.8209 10.9438 15.5407C11.9226 13.2606 13.9203 11.9205 14.2499 8.95035C14.5595 6.00018 12.7017 3 12.7017 3C13.1112 6.46021 11.9726 7.29025 10.2146 9.36038Z" fill="#E4A124"/>
<mask id="mask0_68_1263" style="mask-type:luminance" maskUnits="userSpaceOnUse" x="7" y="3" width="8" height="18">
<path d="M10.2146 9.36038C8.45672 11.4305 7.73757 13.5506 7.6277 14.7407C7.41795 18.5709 10.2646 20.021 11.3533 20.8011C10.5243 20.181 9.95495 17.8209 10.9438 15.5407C11.9226 13.2606 13.9203 11.9205 14.2499 8.95035C14.5595 6.00018 12.7017 3 12.7017 3C13.1112 6.46021 11.9726 7.29025 10.2146 9.36038Z" fill="white"/>
</mask>
<g mask="url(#mask0_68_1263)">
<path d="M14.5593 2.99001H7.42773V20.7911H14.5593V2.99001Z" fill="#E4A124"/>
</g>
<path d="M8.21695 10.0194C6.58887 11.4694 5.90968 13.3696 6.00956 14.6096C6.10944 17.4398 8.7663 19.2999 8.7663 19.2999C7.55773 17.8498 6.79863 15.6397 7.17818 13.4996C7.55773 11.3594 9.90495 8.87929 10.9737 7.59921C10.6041 8.01924 10.0847 8.36926 8.21695 10.0194Z" fill="#E4A124"/>
<mask id="mask1_68_1263" style="mask-type:luminance" maskUnits="userSpaceOnUse" x="6" y="7" width="5" height="13">
<path d="M8.21695 10.0194C6.58887 11.4694 5.90968 13.3696 6.00956 14.6096C6.10944 17.4398 8.7663 19.2999 8.7663 19.2999C7.55773 17.8498 6.79863 15.6397 7.17818 13.4996C7.55773 11.3594 9.90495 8.87929 10.9737 7.59921C10.6041 8.01924 10.0847 8.36926 8.21695 10.0194Z" fill="white"/>
</mask>
<g mask="url(#mask1_68_1263)">
<path d="M10.9737 7.60924H5.90967V19.3099H10.9737V7.60924Z" fill="#E4A124"/>
</g>
<path d="M14.1502 11.8495C13.461 13.4396 12.0127 15.1597 11.6032 15.9597C10.3947 18.5799 12.0527 21 12.0527 21C16.5973 20.79 17.4663 17.2398 17.6361 15.3397C17.2865 16.2697 16.3976 17.1298 15.7783 17.5098C17.746 14.0896 16.018 9.67933 14.9493 8.18924C14.9792 9.29931 14.8394 10.2594 14.1502 11.8495Z" fill="#E4A124"/>
<mask id="mask2_68_1263" style="mask-type:luminance" maskUnits="userSpaceOnUse" x="11" y="8" width="7" height="13">
<path d="M14.0804 11.8405C13.3912 13.4306 11.9429 15.1507 11.5334 15.9508C10.3248 18.5709 11.9829 20.9911 11.9829 20.9911C16.5275 20.781 17.3965 17.2308 17.5663 15.3307C17.2167 16.2608 16.3277 17.1208 15.7085 17.5008C17.6762 14.0806 15.9482 9.67039 14.8795 8.1803C14.9094 9.29036 14.7696 10.2504 14.0804 11.8405Z" fill="white"/>
</mask>
<g mask="url(#mask2_68_1263)">
<path d="M17.666 8.1803H10.3247V20.9811H17.666V8.1803Z" fill="#E4A124"/>
</g>
</svg>
