<svg width="41" height="41" viewBox="0 0 41 41" fill="none" xmlns="http://www.w3.org/2000/svg">
<rect width="41" height="41" rx="2" fill="#F8E8C8"/>
<path d="M20.5002 6.83333C22.3125 6.83333 24.0506 7.55327 25.3321 8.83476C26.6136 10.1163 27.3335 11.8543 27.3335 13.6667C27.3335 15.479 26.6136 17.2171 25.3321 18.4986C24.0506 19.7801 22.3125 20.5 20.5002 20.5C18.6878 20.5 16.9498 19.7801 15.6683 18.4986C14.3868 17.2171 13.6668 15.479 13.6668 13.6667C13.6668 11.8543 14.3868 10.1163 15.6683 8.83476C16.9498 7.55327 18.6878 6.83333 20.5002 6.83333ZM20.5002 23.9167C28.051 23.9167 34.1668 26.9746 34.1668 30.75V34.1667H6.8335V30.75C6.8335 26.9746 12.9493 23.9167 20.5002 23.9167Z" fill="#E4A124"/>
</svg>
